<?xml version="1.0" standalone="no"?>
<!DOCTYPE svg PUBLIC "-//W3C//DTD SVG 20010904//EN"
 "http://www.w3.org/TR/2001/REC-SVG-20010904/DTD/svg10.dtd">
<svg version="1.0" xmlns="http://www.w3.org/2000/svg"
 width="512.000000pt" height="512.000000pt" viewBox="0 0 512.000000 512.000000"
 preserveAspectRatio="xMidYMid meet">

<g transform="translate(0.000000,512.000000) scale(0.100000,-0.100000)"
fill="#BFD9EA" stroke="none">
<path d="M1390 5101 c-5 -11 -10 -74 -10 -140 0 -123 8 -151 45 -151 33 0 45
42 45 155 0 84 -4 116 -16 133 -19 27 -50 29 -64 3z"/>
<path d="M2294 4638 c-98 -95 -114 -127 -75 -148 11 -5 23 -10 27 -10 4 0 49
41 100 92 98 95 114 127 75 148 -11 5 -23 10 -27 10 -4 0 -49 -41 -100 -92z"/>
<path d="M410 4699 c-10 -18 -1 -30 77 -110 102 -105 115 -114 143 -99 41 22
25 54 -72 144 -97 89 -128 103 -148 65z"/>
<path d="M1255 4586 c-347 -69 -614 -320 -697 -656 -29 -116 -29 -292 1 -405
63 -238 232 -449 443 -556 l58 -29 0 -314 0 -313 30 -61 c37 -74 92 -125 177
-165 188 -88 413 -8 499 177 23 50 24 56 24 362 l0 312 83 46 c276 155 440
438 439 756 -1 384 -255 712 -639 826 -110 32 -307 42 -418 20z m385 -96 c269
-75 478 -275 560 -535 31 -97 38 -283 16 -380 -34 -148 -94 -261 -193 -366
-79 -83 -138 -128 -235 -177 l-73 -38 -3 -72 -3 -72 -119 0 -120 0 0 286 0
285 79 100 c107 137 123 197 77 295 -90 194 -389 144 -413 -69 -8 -68 12 -116
92 -222 l75 -100 0 -287 0 -288 -120 0 -119 0 -3 73 -3 72 -40 19 c-212 100
-365 265 -438 474 -26 74 -31 105 -35 213 -4 105 -1 140 17 209 79 314 327
541 655 600 80 14 260 4 346 -20z m-156 -644 c66 -27 99 -105 73 -168 -8 -18
-41 -66 -72 -106 l-58 -72 -62 84 c-70 95 -80 121 -65 175 21 80 105 120 184
87z m226 -1146 l0 -70 -285 0 -285 0 0 70 0 70 285 0 285 0 0 -70z m0 -235 l0
-75 -285 0 -285 0 0 75 0 75 285 0 285 0 0 -75z m-20 -176 c-23 -43 -85 -101
-134 -127 -102 -52 -250 -30 -334 51 -30 28 -62 76 -62 92 0 3 122 5 270 5
l271 0 -11 -21z"/>
<path d="M1300 4264 c-231 -50 -422 -267 -431 -489 -3 -64 14 -92 50 -80 22 7
27 19 36 107 4 33 20 86 41 128 67 141 204 238 369 261 97 14 125 37 89 73
-19 19 -66 19 -154 0z"/>
<path d="M12 3758 c-7 -7 -12 -19 -12 -28 0 -35 21 -40 156 -40 107 0 136 3
148 16 19 18 19 20 6 45 -10 17 -22 19 -148 19 -94 0 -142 -4 -150 -12z"/>
<path d="M2540 3751 c-13 -25 -13 -27 6 -45 23 -23 265 -23 288 0 9 8 16 21
16 28 0 30 -25 36 -162 36 -126 0 -138 -2 -148 -19z"/>
<path d="M3678 2488 c-10 -9 -23 -57 -38 -143 -12 -71 -23 -137 -26 -145 -2
-9 -25 -22 -51 -28 -26 -7 -85 -31 -131 -52 l-84 -40 -120 85 c-67 47 -128 85
-136 85 -21 0 -252 -230 -252 -251 0 -9 35 -66 78 -126 43 -59 81 -113 85
-119 4 -6 -7 -40 -25 -74 -17 -34 -41 -92 -54 -129 l-23 -66 -143 -25 c-79
-14 -149 -29 -155 -33 -20 -12 -18 -340 1 -356 8 -7 76 -22 151 -35 75 -13
140 -27 144 -32 5 -5 16 -34 26 -64 10 -30 33 -86 52 -123 l34 -68 -82 -112
c-45 -61 -84 -120 -87 -130 -6 -25 223 -257 253 -257 11 0 73 38 138 84 l118
84 67 -34 c37 -19 96 -44 133 -55 l65 -20 23 -137 c13 -75 27 -145 33 -154 8
-16 27 -18 178 -18 140 0 171 3 184 16 9 8 16 23 16 32 0 9 10 71 21 138 l22
122 65 22 c36 11 96 36 132 54 l66 34 119 -84 c66 -46 128 -84 139 -84 19 0
228 197 248 234 10 18 -22 72 -134 223 l-31 43 36 77 c20 43 45 102 55 132
l18 55 144 23 c79 13 149 28 157 34 18 16 19 342 1 357 -7 5 -78 21 -158 34
l-145 24 -17 54 c-10 29 -34 89 -54 131 l-36 77 87 122 c69 94 86 125 79 139
-13 25 -239 241 -253 241 -7 0 -62 -35 -124 -78 -62 -44 -117 -82 -123 -85 -6
-4 -42 9 -80 27 -38 19 -95 42 -128 52 -39 12 -61 25 -66 39 -4 11 -15 72 -25
135 -26 170 -13 160 -208 160 -116 0 -168 -4 -179 -12z m311 -200 c13 -73 25
-140 27 -149 3 -11 36 -26 92 -44 48 -15 121 -44 162 -66 42 -21 82 -39 89
-39 8 0 65 36 127 80 62 44 117 80 121 80 5 0 44 -35 87 -79 l78 -79 -79 -108
c-43 -60 -82 -114 -86 -121 -4 -6 13 -51 38 -100 25 -48 55 -119 67 -158 11
-38 26 -76 33 -83 6 -7 75 -23 151 -35 l139 -22 0 -115 0 -115 -140 -23 c-77
-12 -145 -28 -151 -35 -6 -7 -21 -45 -33 -85 -12 -40 -42 -111 -67 -158 -52
-99 -58 -72 56 -229 l71 -99 -82 -82 -82 -83 -56 41 c-31 22 -86 60 -123 85
l-67 45 -103 -50 c-57 -28 -130 -58 -162 -66 -32 -8 -63 -19 -69 -25 -5 -5
-18 -58 -28 -118 -10 -59 -21 -123 -24 -140 l-6 -33 -114 0 c-111 0 -115 1
-120 23 -2 12 -14 76 -25 141 -10 66 -23 123 -28 128 -5 5 -36 16 -68 24 -32
8 -105 37 -161 65 -56 27 -105 49 -109 49 -3 0 -57 -36 -119 -80 -62 -44 -116
-80 -120 -80 -11 0 -165 142 -165 152 0 6 36 60 80 120 44 61 80 117 80 125 0
8 -15 42 -34 76 -19 34 -49 105 -67 157 -17 52 -36 98 -41 101 -6 4 -73 17
-149 29 l-139 23 0 112 c0 131 -19 113 155 140 61 10 119 23 131 30 13 9 25
32 33 68 7 31 34 100 61 154 28 54 50 104 50 111 0 8 -34 61 -76 119 -41 58
-77 110 -80 117 -7 18 151 170 167 160 8 -4 61 -41 118 -81 57 -40 109 -73
114 -73 6 0 51 20 101 44 50 25 120 52 156 62 36 9 70 22 77 28 7 6 22 70 33
141 12 72 23 136 25 143 3 9 36 12 118 12 l114 0 22 -132z"/>
<path d="M3810 2150 l0 -40 45 0 45 0 0 40 0 40 -45 0 -45 0 0 -40z"/>
<path d="M4465 1920 l-29 -30 32 -33 32 -32 30 31 30 30 -33 32 -33 32 -29
-30z"/>
<path d="M3175 1910 l-29 -30 27 -27 27 -28 32 32 32 32 -24 26 c-13 14 -26
25 -30 25 -3 0 -19 -14 -35 -30z"/>
<path d="M3740 1775 c-198 -45 -358 -193 -414 -384 -21 -71 -21 -220 0 -292
36 -124 121 -235 236 -309 91 -59 172 -82 293 -82 166 0 288 53 403 177 103
110 147 234 140 390 -9 181 -93 324 -250 426 -116 74 -277 104 -408 74z m281
-101 c312 -122 398 -514 164 -749 -98 -97 -218 -141 -367 -133 -282 15 -484
292 -414 568 37 143 148 266 286 315 97 35 240 34 331 -1z"/>
<path d="M3905 1295 l-130 -124 -55 59 c-31 33 -59 60 -64 60 -20 0 -46 -23
-46 -40 0 -27 137 -180 161 -180 22 0 316 274 325 303 7 23 -13 47 -40 47 -13
-1 -70 -48 -151 -125z"/>
<path d="M2900 1245 l0 -45 40 0 40 0 0 45 0 45 -40 0 -40 0 0 -45z"/>
<path d="M4730 1245 l0 -45 40 0 40 0 0 45 0 45 -40 0 -40 0 0 -45z"/>
<path d="M3172 647 c-28 -30 -28 -38 6 -70 l28 -27 29 30 29 30 -29 30 c-35
36 -36 36 -63 7z"/>
<path d="M4472 637 l-32 -33 27 -26 28 -27 34 31 34 30 -30 29 -29 29 -32 -33z"/>
<path d="M3810 344 l0 -45 43 3 c42 3 42 3 45 46 l3 42 -45 0 -46 0 0 -46z"/>
<path d="M1397 1882 c-15 -17 -17 -63 -17 -520 0 -442 2 -502 16 -516 14 -14
77 -16 548 -16 512 0 534 1 550 19 14 15 15 24 6 40 -11 21 -14 21 -520 21
l-510 0 0 468 c0 483 -3 512 -41 520 -8 1 -23 -6 -32 -16z"/>
</g>
</svg>
